<?xml version="1.0" encoding="UTF-8"?>
<!DOCTYPE svg PUBLIC "-//W3C//DTD SVG 1.1//EN" "http://www.w3.org/Graphics/SVG/1.1/DTD/svg11.dtd">
<!-- Creator: CorelDRAW X7 -->
<svg xmlns="http://www.w3.org/2000/svg" xml:space="preserve" width="257.596mm" height="52.7161mm" version="1.1" style="shape-rendering:geometricPrecision; text-rendering:geometricPrecision; image-rendering:optimizeQuality; fill-rule:evenodd; clip-rule:evenodd"
viewBox="0 0 25648 5249"
 xmlns:xlink="http://www.w3.org/1999/xlink">
 <defs>
  <style type="text/css">
   <![CDATA[
    .fil2 {fill:#848688}
    .fil3 {fill:#2C6BA2}
    .fil1 {fill:#848688;fill-rule:nonzero}
    .fil0 {fill:#373435;fill-rule:nonzero}
   ]]>
  </style>
 </defs>
 <g id="Capa_x0020_1">
  <metadata id="CorelCorpID_0Corel-Layer"/>
  <path class="fil0" d="M5681 2856c15,-186 74,-352 175,-495 101,-144 227,-256 378,-336 151,-79 306,-121 467,-127 168,0 326,32 473,98 146,64 265,166 357,305l0 -1057 270 0 0 2705 -256 0 0 -380c-95,143 -209,249 -342,319 -133,70 -296,105 -488,105 -164,-7 -327,-55 -488,-145 -161,-90 -294,-213 -396,-372 -103,-158 -154,-337 -154,-535 0,-37 1,-66 4,-85zm277 -21c-4,24 -7,61 -7,109 0,133 35,259 104,380 69,121 163,219 283,294 120,75 253,113 399,116 132,0 261,-33 385,-100 125,-66 226,-161 305,-286 79,-125 118,-269 118,-433 0,-88 -28,-192 -84,-310 -57,-119 -145,-222 -267,-309 -122,-87 -274,-131 -457,-131 -99,0 -203,22 -312,66 -109,45 -208,117 -295,219 -87,100 -144,229 -172,385z"/>
  <path class="fil0" d="M8137 3949l0 -2007 253 0 0 300c111,-229 306,-344 584,-344l0 274c-63,0 -128,14 -196,40 -68,27 -130,65 -187,114 -57,50 -103,108 -137,174 -33,66 -50,137 -50,214l0 1235 -267 0z"/>
  <path class="fil0" d="M9032 2915c2,-132 29,-258 83,-380 53,-123 128,-230 225,-325 95,-94 209,-169 342,-223 131,-54 274,-82 429,-82 146,0 296,42 449,127 153,83 282,198 387,343 104,146 164,306 176,481 0,9 1,22 2,39 1,18 2,30 2,38 0,147 -27,286 -83,414 -55,129 -132,242 -231,340 -99,97 -212,172 -339,226 -127,53 -260,80 -401,80 -168,0 -334,-42 -494,-127 -161,-84 -292,-208 -394,-373 -102,-164 -153,-356 -153,-578zm263 14c0,160 36,300 107,420 71,120 167,214 287,281 120,67 251,104 392,111 119,0 237,-32 355,-96 118,-63 216,-157 294,-280 77,-124 115,-269 115,-436 0,-97 -20,-192 -61,-283 -40,-92 -96,-175 -167,-247 -71,-72 -154,-129 -247,-171 -94,-42 -190,-63 -289,-63 -134,3 -261,37 -381,104 -119,65 -216,156 -290,271 -74,116 -112,245 -115,389z"/>
  <path class="fil0" d="M11368 3949l0 -2000 256 0 0 300c66,-110 156,-195 270,-255 115,-59 236,-89 365,-89 113,0 221,20 326,61 104,41 198,100 281,177 83,77 149,174 197,289 50,116 74,244 74,387l0 1130 -263 0 0 -1130c0,-138 -30,-256 -89,-354 -59,-98 -137,-171 -233,-220 -96,-48 -198,-73 -307,-73 -107,0 -206,23 -298,70 -93,47 -167,117 -224,210 -56,93 -85,205 -85,335l0 1162 -270 0z"/>
  <path class="fil0" d="M13392 2936c4,-160 35,-304 94,-432 59,-128 137,-237 237,-327 99,-90 209,-159 331,-206 121,-47 245,-71 372,-73 171,0 336,41 497,124 159,84 290,208 393,375 101,166 153,365 153,594l0 51 -1807 0c12,149 58,275 137,379 79,105 175,183 288,235 112,52 223,78 332,78 97,0 195,-20 294,-58 99,-39 186,-92 261,-160 77,-68 130,-143 162,-224l277 0c-56,153 -138,283 -245,389 -107,106 -227,185 -361,236 -132,51 -266,76 -402,76 -178,-7 -345,-55 -499,-142 -155,-88 -280,-211 -373,-369 -94,-159 -141,-340 -141,-546zm1813 -135c-22,-115 -70,-222 -142,-320 -72,-98 -164,-177 -273,-236 -110,-58 -229,-87 -357,-87 -171,0 -314,40 -427,122 -114,81 -197,171 -251,272 -54,100 -85,183 -93,249l1543 0z"/>
  <path class="fil1" d="M15716 3949l0 -2007 253 0 0 300c111,-229 306,-344 584,-344l0 274c-63,0 -128,14 -196,40 -68,27 -130,65 -187,114 -57,50 -102,108 -137,174 -33,66 -50,137 -50,214l0 1235 -267 0z"/>
  <path class="fil1" d="M16604 2962c1,-160 33,-305 94,-438 60,-133 141,-246 243,-338 103,-94 217,-164 345,-214 128,-49 257,-74 389,-74 366,9 628,155 786,439l0 -388 263 0 0 2000 -263 0 0 -380c-75,135 -183,239 -326,313 -142,74 -303,111 -483,111 -137,-4 -268,-30 -393,-79 -126,-49 -238,-119 -337,-209 -99,-91 -177,-199 -234,-326 -56,-127 -84,-266 -84,-417zm278 -62c0,164 35,309 108,436 73,126 168,223 286,291 119,68 244,103 376,107 153,0 292,-37 415,-111 123,-74 219,-170 289,-289 70,-119 105,-243 105,-372 0,-141 -34,-272 -102,-392 -67,-119 -161,-215 -279,-287 -119,-72 -249,-111 -391,-118 -154,0 -293,38 -417,115 -124,77 -219,173 -288,288 -68,116 -102,226 -102,332z"/>
  <polygon class="fil1" points="19056,3949 19056,1949 19327,1949 19327,3949 "/>
  <path class="fil1" d="M19567 2534c-2,-19 -3,-46 -3,-80 0,-116 28,-215 86,-299 58,-83 131,-145 218,-187 87,-42 172,-63 255,-63 67,0 134,12 201,34 66,23 127,57 182,101 55,45 100,101 134,169 34,69 53,147 57,234l-275 0c-4,-96 -35,-167 -92,-211 -56,-44 -126,-67 -207,-67 -72,0 -139,24 -201,71 -61,47 -94,115 -99,206 1,3 5,18 11,45 6,28 10,46 12,55 18,65 81,121 188,165 107,45 215,87 323,128 109,40 201,101 276,179 75,80 112,192 112,339 0,25 -3,62 -8,110 -15,123 -56,225 -122,304 -66,80 -144,138 -235,173 -89,35 -178,53 -265,53 -120,0 -228,-27 -323,-83 -96,-55 -170,-131 -222,-227 -53,-96 -79,-202 -79,-319l271 -8c3,115 42,208 116,279 74,72 159,109 253,113 95,-8 176,-45 243,-110 67,-65 100,-144 100,-237 0,-82 -27,-157 -80,-224 -54,-66 -137,-114 -249,-142 -152,-41 -283,-99 -390,-172 -108,-74 -171,-183 -188,-329z"/>
  <polygon class="fil1" points="20948,3949 20948,1949 21219,1949 21219,3949 "/>
  <path class="fil1" d="M21547 3949l0 -2000 257 0 0 300c65,-110 156,-195 270,-255 114,-59 235,-89 365,-89 112,0 221,20 326,61 104,41 198,100 280,177 83,77 149,174 198,289 49,116 74,244 74,387l0 1130 -264 0 0 -1130c0,-138 -29,-256 -89,-354 -59,-98 -136,-171 -232,-220 -97,-48 -199,-73 -307,-73 -107,0 -206,23 -298,70 -93,47 -167,117 -224,210 -57,93 -85,205 -85,335l0 1162 -271 0z"/>
  <path class="fil1" d="M23571 2944c0,-209 49,-393 147,-551 98,-157 223,-279 376,-363 152,-85 308,-129 468,-132 122,0 238,18 347,54 111,37 208,89 292,157 84,68 148,147 191,235l0 -402 256 0 0 1835c0,153 -27,289 -80,407 -53,118 -126,216 -218,294 -92,78 -198,137 -316,176 -119,40 -242,59 -369,59 -114,0 -227,-15 -336,-46 -109,-31 -210,-77 -302,-138 -93,-60 -172,-136 -239,-226 -66,-91 -114,-195 -144,-310l264 0c65,154 166,271 301,351 136,81 282,121 440,121 131,0 254,-28 367,-82 113,-54 204,-134 273,-240 69,-105 103,-230 103,-373l0 -219c-158,295 -418,442 -779,442 -125,0 -248,-23 -372,-69 -123,-45 -235,-114 -336,-204 -100,-89 -181,-201 -241,-333 -60,-132 -91,-280 -93,-443zm271 -51c0,167 34,315 103,441 69,127 161,225 277,293 116,68 244,103 384,107 110,0 226,-29 349,-86 121,-57 225,-148 310,-271 84,-124 127,-278 127,-462 0,-94 -21,-186 -63,-277 -41,-90 -99,-171 -173,-242 -73,-71 -160,-127 -259,-169 -99,-41 -203,-62 -312,-62 -192,5 -342,55 -452,150 -111,95 -187,199 -228,311 -42,113 -63,201 -63,267z"/>
  <path class="fil2" d="M21100 1791c104,0 188,-85 188,-189 0,-104 -84,-188 -188,-188 -104,0 -189,84 -189,188 0,104 85,189 189,189z"/>
  <path class="fil2" d="M19203 1791c104,0 188,-85 188,-189 0,-104 -84,-188 -188,-188 -104,0 -188,84 -188,188 0,104 84,189 188,189z"/>
  <path class="fil3" d="M2604 4420c996,0 1805,-808 1805,-1805 0,-996 -809,-1804 -1805,-1804 -997,0 -1805,808 -1805,1804l0 0 0 0 0 1805 1805 0 0 0 0 0zm37 -1298c285,0 516,-231 516,-517 0,-285 -231,-516 -516,-516 -286,0 -517,231 -517,516 0,286 231,517 517,517zm-17 2127c1450,0 2625,-1175 2625,-2625 0,-1449 -1175,-2624 -2625,-2624 -1449,0 -2624,1175 -2624,2624 0,565 178,1088 482,1516l0 -489c-149,-311 -233,-659 -233,-1027 0,-1311 1064,-2375 2375,-2375 1312,0 2376,1064 2376,2375 0,1312 -1064,2376 -2376,2376 -391,0 -760,-95 -1086,-263l-470 0c435,322 974,512 1556,512zm-20 -1290c741,0 1343,-602 1343,-1344 0,-741 -602,-1343 -1343,-1343 -742,0 -1343,602 -1343,1343 0,742 601,1344 1343,1344z"/>
 </g>
</svg>
